<?xml version="1.0" standalone="no"?><!DOCTYPE svg PUBLIC "-//W3C//DTD SVG 1.1//EN" "http://www.w3.org/Graphics/SVG/1.1/DTD/svg11.dtd"><svg t="1655354451528" class="icon" viewBox="0 0 1024 1024" version="1.1" xmlns="http://www.w3.org/2000/svg" p-id="1867" xmlns:xlink="http://www.w3.org/1999/xlink" width="200" height="200"><defs><style type="text/css">@font-face { font-family: feedback-iconfont; src: url("//at.alicdn.com/t/font_1031158_u69w8yhxdu.woff2?t=1630033759944") format("woff2"), url("//at.alicdn.com/t/font_1031158_u69w8yhxdu.woff?t=1630033759944") format("woff"), url("//at.alicdn.com/t/font_1031158_u69w8yhxdu.ttf?t=1630033759944") format("truetype"); }
</style></defs><path d="M426.666667 426.666667H85.546667A85.418667 85.418667 0 0 0 0 512c0 47.445333 38.314667 85.333333 85.546667 85.333333H426.666667v341.12c0 47.274667 38.186667 85.546667 85.333333 85.546667 47.445333 0 85.333333-38.314667 85.333333-85.546667V597.333333h341.12A85.418667 85.418667 0 0 0 1024 512c0-47.445333-38.314667-85.333333-85.546667-85.333333H597.333333V85.546667A85.418667 85.418667 0 0 0 512 0c-47.445333 0-85.333333 38.314667-85.333333 85.546667V426.666667z" p-id="1868" fill="#dbdbdb"></path></svg>